<svg id="visual" viewBox="0 0 960 540" width="960" height="540" xmlns="http://www.w3.org/2000/svg" xmlns:xlink="http://www.w3.org/1999/xlink" version="1.1"><path d="M0 436L22.8 442.3C45.7 448.7 91.3 461.3 137 466C182.7 470.7 228.3 467.3 274 456C319.7 444.7 365.3 425.3 411.2 413C457 400.7 503 395.3 548.8 403.3C594.7 411.3 640.3 432.7 686 431C731.7 429.3 777.3 404.7 823 394.8C868.7 385 914.3 390 937.2 392.5L960 395L960 541L937.2 541C914.3 541 868.7 541 823 541C777.3 541 731.7 541 686 541C640.3 541 594.7 541 548.8 541C503 541 457 541 411.2 541C365.3 541 319.7 541 274 541C228.3 541 182.7 541 137 541C91.3 541 45.7 541 22.8 541L0 541Z" fill="#380a3e" stroke-linecap="round" stroke-linejoin="miter"></path></svg>